<svg width="1376px" height="628px" style="position: relative; top: 0px; left: 0px; width: 1376px; height: 628px;" class="_ViewportContainer-module__viewport__3SU_V" viewBox="-378.6954954954955 -33.67207207207207 1269.390990990991 579.3441441441441"><style></style><defs><pattern id="o_eij736m56_3" class="pattern-dotted" x="0" y="0" width="29.52072072072072" height="29.52072072072072" patternUnits="userSpaceOnUse"><rect x="0" y="0" width="29.52072072072072" height="29.52072072072072"></rect><circle cx="0" cy="0" r="1.3837837837837839"></circle><circle cx="29.52072072072072" cy="0" r="1.3837837837837839"></circle><circle cx="29.52072072072072" cy="29.52072072072072" r="1.3837837837837839"></circle><circle cx="0" cy="29.52072072072072" r="1.3837837837837839"></circle></pattern></defs><rect class="_ViewportContainer-module__background__1DPKg" fill="url(#o_eij736m56_3)" stroke-width="0.9225225225225225" x="0" y="0" width="512" height="512"></rect><svg xmlns="http://www.w3.org/2000/svg" width="512" height="512" style="overflow: visible;" viewBox="0 0 512 512" data-svgdocument="" id="_hIhg2RfQs3aojVFUZK4UJ" class="fl-svgdocument" x="0" y="0" xmlns:xlink="http://www.w3.org/1999/xlink"><rect data-uid="o_eij736m56_26" data-fl-background="" x="0" y="0" width="512" height="512" fill="#ffffff"></rect><defs id="_-EmHSPFrAsk6S5VyBCMl8" transform="matrix(1.4592227935791016, 0, 0, 1.4592227935791016, -70.25205993652344, 116.47757720947266)" data-uid="o_eij736m56_5"></defs><path text="Devious" text-anchor="start" font-size="100" letter-spacing="0" side="left" offset="0" dx="0" dy="0" space="preserve" href="" font-family="Bungee" font-scale="contain" transform="matrix(0.632230281829834, 0, 0, 0.632230281829834, 146.3684844970703, 316.6545715332031)" x="0" y="0" fill="#242424" data-fl-textpath="" id="_jHqtS0EJ6D3jCZshQxuCm" data-uid="o_eij736m56_6" d="M 44.2 0L 44.2 0L 10.5 0Q 8.6 0  7.75-0.85Q 6.9-1.7  6.9-3.6L 6.9-3.6L 6.9-68.4Q 6.9-70.3  7.75-71.15Q 8.6-72  10.5-72L 10.5-72L 44.2-72Q 56.7-72  62.75-67Q 68.8-62  68.8-51.6L 68.8-51.6L 68.8-20.4Q 68.8-10  62.75-5Q 56.7 0  44.2 0ZM 41.5-52.9L 29.6-52.9L 29.6-18.9L 41.5-18.9Q 43.9-18.9  45.05-20.1Q 46.2-21.3  46.2-23.8L 46.2-23.8L 46.2-48.1Q 46.2-50.6  45.05-51.75Q 43.9-52.9  41.5-52.9L 41.5-52.9ZM 131.5 0L 131.5 0L 85.10000000000001 0Q 83.2 0  82.35000000000001-0.85Q 81.50000000000001-1.7  81.50000000000001-3.6L 81.50000000000001-3.6L 81.50000000000001-68.4Q 81.50000000000001-70.3  82.35000000000001-71.15Q 83.2-72  85.10000000000001-72L 85.10000000000001-72L 131.5-72Q 133.4-72  134.25-71.15Q 135.10000000000002-70.3  135.10000000000002-68.4L 135.10000000000002-68.4L 135.10000000000002-56.7Q 135.10000000000002-54.8  134.25-53.95Q 133.4-53.1  131.5-53.1L 131.5-53.1L 103.9-53.1L 103.9-45.4L 123.4-45.4Q 125.30000000000001-45.4  126.15-44.55Q 127-43.7  127-41.8L 127-41.8L 127-31.1Q 127-29.2  126.15-28.35Q 125.30000000000001-27.5  123.4-27.5L 123.4-27.5L 103.9-27.5L 103.9-18.9L 131.5-18.9Q 133.4-18.9  134.25-18.05Q 135.10000000000002-17.2  135.10000000000002-15.3L 135.10000000000002-15.3L 135.10000000000002-3.6Q 135.10000000000002-1.7  134.25-0.85Q 133.4 0  131.5 0ZM 189.5 0L 189.5 0L 163.5 0Q 161.6 0  160.35-0.7Q 159.1-1.4  158.4-3.3L 158.4-3.3L 148.6-27.8Q 147.7-30  147.1-31.65Q 146.5-33.3  146.1-34.8Q 145.7-36.3  145.55-37.95Q 145.4-39.6  145.4-42L 145.4-42L 145.4-68.4Q 145.4-70.3  146.25-71.15Q 147.1-72  149-72L 149-72L 164.9-72Q 166.8-72  167.8-71.15Q 168.8-70.3  168.8-68.4L 168.8-68.4L 168.8-40.8Q 168.8-39.8  169-38.8Q 169.2-37.8  169.6-36.7L 169.6-36.7L 174.3-22.7Q 174.6-21.7  175-21.35Q 175.4-21  176.2-21L 176.2-21L 177.3-21Q 178.1-21  178.5-21.35Q 178.9-21.7  179.2-22.7L 179.2-22.7L 183.9-36.8Q 184.3-37.9  184.5-38.9Q 184.7-39.9  184.7-40.9L 184.7-40.9L 184.7-68.4Q 184.7-70.3  185.55-71.15Q 186.4-72  188.3-72L 188.3-72L 204-72Q 205.9-72  206.75-71.15Q 207.6-70.3  207.6-68.4L 207.6-68.4L 207.6-42Q 207.6-39.6  207.45-37.95Q 207.3-36.3  206.9-34.8Q 206.5-33.3  205.9-31.65Q 205.3-30  204.4-27.8L 204.4-27.8L 194.6-3.3Q 193.9-1.4  192.65-0.7Q 191.4 0  189.5 0ZM 264.5 0L 221.9 0Q 220 0  219.15-0.85Q 218.3-1.7  218.3-3.6L 218.3-3.6L 218.3-15.5Q 218.3-17.4  219.15-18.25Q 220-19.1  221.9-19.1L 221.9-19.1L 231.8-19.1L 231.8-52.7L 221.9-52.7Q 220-52.7  219.15-53.55Q 218.3-54.4  218.3-56.3L 218.3-56.3L 218.3-68.4Q 218.3-70.3  219.15-71.15Q 220-72  221.9-72L 221.9-72L 264.5-72Q 266.4-72  267.25-71.15Q 268.1-70.3  268.1-68.4L 268.1-68.4L 268.1-56.3Q 268.1-54.4  267.25-53.55Q 266.4-52.7  264.5-52.7L 264.5-52.7L 254.8-52.7L 254.8-19.1L 264.5-19.1Q 266.4-19.1  267.25-18.25Q 268.1-17.4  268.1-15.5L 268.1-15.5L 268.1-3.6Q 268.1-1.7  267.25-0.85Q 266.4 0  264.5 0L 264.5 0ZM 341.4-53L 341.4-18.9Q 341.4-14.3  340.05-10.55Q 338.7-6.8  335.25-4.15Q 331.8-1.5  325.75 0Q 319.7 1.5  310.4 1.5L 310.4 1.5Q 301.1 1.5  295 0Q 288.9-1.5  285.45-4.15Q 282-6.8  280.65-10.55Q 279.3-14.3  279.3-18.9L 279.3-18.9L 279.3-53Q 279.3-57.6  280.65-61.35Q 282-65.1  285.45-67.8Q 288.9-70.5  295-72Q 301.1-73.5  310.4-73.5L 310.4-73.5Q 319.7-73.5  325.75-72Q 331.8-70.5  335.25-67.8Q 338.7-65.1  340.05-61.35Q 341.4-57.6  341.4-53L 341.4-53ZM 302-49.4L 302-22.5Q 302-20.5  303.5-19.15Q 305-17.8  310.4-17.8L 310.4-17.8Q 315.8-17.8  317.3-19.15Q 318.8-20.5  318.8-22.5L 318.8-22.5L 318.8-49.4Q 318.8-51.3  317.3-52.65Q 315.8-54  310.4-54L 310.4-54Q 305-54  303.5-52.65Q 302-51.3  302-49.4L 302-49.4ZM 415.4-68.4L 415.4-18.9Q 415.4-14.3  414.04999999999995-10.55Q 412.7-6.8  409.25-4.15Q 405.8-1.5  399.8 0Q 393.8 1.5  384.5 1.5L 384.5 1.5Q 375.2 1.5  369.2 0Q 363.2-1.5  359.75-4.15Q 356.3-6.8  354.95-10.55Q 353.59999999999997-14.3  353.59999999999997-18.9L 353.59999999999997-18.9L 353.59999999999997-68.4Q 353.59999999999997-70.3  354.45-71.15Q 355.3-72  357.2-72L 357.2-72L 372.9-72Q 374.8-72  375.65-71.15Q 376.5-70.3  376.5-68.4L 376.5-68.4L 376.5-22.8Q 376.5-20.8  378-19.45Q 379.5-18.1  384.7-18.1L 384.7-18.1Q 390-18.1  391.5-19.45Q 393-20.8  393-22.8L 393-22.8L 393-68.4Q 393-70.3  393.84999999999997-71.15Q 394.7-72  396.59999999999997-72L 396.59999999999997-72L 411.79999999999995-72Q 413.7-72  414.54999999999995-71.15Q 415.4-70.3  415.4-68.4L 415.4-68.4ZM 462.1 0L 462.1 0L 430.5 0Q 428.6 0  427.75-0.85Q 426.90000000000003-1.7  426.90000000000003-3.6L 426.90000000000003-3.6L 426.90000000000003-15.3Q 426.90000000000003-17.2  427.75-18.05Q 428.6-18.9  430.5-18.9L 430.5-18.9L 457.40000000000003-18.9Q 458.7-18.9  459.35-19.75Q 460-20.6  460-21.8L 460-21.8Q 460-23.5  459.35-24.3Q 458.7-25.1  457.40000000000003-25.2L 457.40000000000003-25.2L 442.40000000000003-27.3Q 435.40000000000003-28.3  431.15000000000003-31.9Q 426.90000000000003-35.5  426.90000000000003-43.9L 426.90000000000003-43.9L 426.90000000000003-54.4Q 426.90000000000003-62.9  432.40000000000003-67.45Q 437.90000000000003-72  447.6-72L 447.6-72L 475.6-72Q 477.5-72  478.35-71.15Q 479.2-70.3  479.2-68.4L 479.2-68.4L 479.2-56.5Q 479.2-54.6  478.35-53.75Q 477.5-52.9  475.6-52.9L 475.6-52.9L 452.3-52.9Q 451-52.9  450.3-52.05Q 449.6-51.2  449.6-49.9L 449.6-49.9Q 449.6-48.6  450.3-47.7Q 451-46.8  452.3-46.7L 452.3-46.7L 467.2-44.7Q 474.2-43.7  478.5-40.1Q 482.8-36.5  482.8-28.1L 482.8-28.1L 482.8-17.6Q 482.8-9.1  477.25-4.55Q 471.7 0  462.1 0Z"></path><path text="Disposition" text-anchor="start" font-size="100" letter-spacing="0" side="left" offset="0" dx="0" dy="0" space="preserve" href="" font-family="Bungee" font-scale="contain" transform="matrix(0.4144468307495117, 0, 0, 0.4144468307495117, 146.70155334472656, 357.54302978515625)" x="0" y="0" fill="#242424" data-fl-textpath="" id="_F4bbh9VZtaEUCYl_jtwL7" data-uid="o_eij736m56_7" d="M 44.2 0L 44.2 0L 10.5 0Q 8.6 0  7.75-0.85Q 6.9-1.7  6.9-3.6L 6.9-3.6L 6.9-68.4Q 6.9-70.3  7.75-71.15Q 8.6-72  10.5-72L 10.5-72L 44.2-72Q 56.7-72  62.75-67Q 68.8-62  68.8-51.6L 68.8-51.6L 68.8-20.4Q 68.8-10  62.75-5Q 56.7 0  44.2 0ZM 41.5-52.9L 29.6-52.9L 29.6-18.9L 41.5-18.9Q 43.9-18.9  45.05-20.1Q 46.2-21.3  46.2-23.8L 46.2-23.8L 46.2-48.1Q 46.2-50.6  45.05-51.75Q 43.9-52.9  41.5-52.9L 41.5-52.9ZM 126.10000000000001 0L 83.50000000000001 0Q 81.60000000000001 0  80.75000000000001-0.85Q 79.9-1.7  79.9-3.6L 79.9-3.6L 79.9-15.5Q 79.9-17.4  80.75000000000001-18.25Q 81.60000000000001-19.1  83.50000000000001-19.1L 83.50000000000001-19.1L 93.4-19.1L 93.4-52.7L 83.50000000000001-52.7Q 81.60000000000001-52.7  80.75000000000001-53.55Q 79.9-54.4  79.9-56.3L 79.9-56.3L 79.9-68.4Q 79.9-70.3  80.75000000000001-71.15Q 81.60000000000001-72  83.50000000000001-72L 83.50000000000001-72L 126.10000000000001-72Q 128-72  128.85000000000002-71.15Q 129.70000000000002-70.3  129.70000000000002-68.4L 129.70000000000002-68.4L 129.70000000000002-56.3Q 129.70000000000002-54.4  128.85000000000002-53.55Q 128-52.7  126.10000000000001-52.7L 126.10000000000001-52.7L 116.4-52.7L 116.4-19.1L 126.10000000000001-19.1Q 128-19.1  128.85000000000002-18.25Q 129.70000000000002-17.4  129.70000000000002-15.5L 129.70000000000002-15.5L 129.70000000000002-3.6Q 129.70000000000002-1.7  128.85000000000002-0.85Q 128 0  126.10000000000001 0L 126.10000000000001 0ZM 175.40000000000003 0L 175.40000000000003 0L 143.8 0Q 141.90000000000003 0  141.05-0.85Q 140.20000000000002-1.7  140.20000000000002-3.6L 140.20000000000002-3.6L 140.20000000000002-15.3Q 140.20000000000002-17.2  141.05-18.05Q 141.90000000000003-18.9  143.8-18.9L 143.8-18.9L 170.70000000000002-18.9Q 172.00000000000003-18.9  172.65000000000003-19.75Q 173.3-20.6  173.3-21.8L 173.3-21.8Q 173.3-23.5  172.65000000000003-24.3Q 172.00000000000003-25.1  170.70000000000002-25.2L 170.70000000000002-25.2L 155.70000000000002-27.3Q 148.70000000000002-28.3  144.45000000000002-31.9Q 140.20000000000002-35.5  140.20000000000002-43.9L 140.20000000000002-43.9L 140.20000000000002-54.4Q 140.20000000000002-62.9  145.70000000000002-67.45Q 151.20000000000002-72  160.90000000000003-72L 160.90000000000003-72L 188.90000000000003-72Q 190.8-72  191.65000000000003-71.15Q 192.50000000000003-70.3  192.50000000000003-68.4L 192.50000000000003-68.4L 192.50000000000003-56.5Q 192.50000000000003-54.6  191.65000000000003-53.75Q 190.8-52.9  188.90000000000003-52.9L 188.90000000000003-52.9L 165.60000000000002-52.9Q 164.3-52.9  163.60000000000002-52.05Q 162.90000000000003-51.2  162.90000000000003-49.9L 162.90000000000003-49.9Q 162.90000000000003-48.6  163.60000000000002-47.7Q 164.3-46.8  165.60000000000002-46.7L 165.60000000000002-46.7L 180.50000000000003-44.7Q 187.50000000000003-43.7  191.8-40.1Q 196.10000000000002-36.5  196.10000000000002-28.1L 196.10000000000002-28.1L 196.10000000000002-17.6Q 196.10000000000002-9.1  190.55-4.55Q 185.00000000000003 0  175.40000000000003 0ZM 226.10000000000002 0L 226.10000000000002 0L 210.60000000000002 0Q 208.70000000000002 0  207.85000000000002-0.85Q 207.00000000000003-1.7  207.00000000000003-3.6L 207.00000000000003-3.6L 207.00000000000003-68.4Q 207.00000000000003-70.3  207.85000000000002-71.15Q 208.70000000000002-72  210.60000000000002-72L 210.60000000000002-72L 241.20000000000002-72Q 254.8-72  259.8-66.6Q 264.8-61.2  264.8-52.5L 264.8-52.5L 264.8-39.7Q 264.8-31  259.8-25.6Q 254.8-20.2  241.20000000000002-20.2L 241.20000000000002-20.2L 229.70000000000002-20.2L 229.70000000000002-3.6Q 229.70000000000002-1.7  228.85000000000002-0.85Q 228.00000000000003 0  226.10000000000002 0ZM 238.50000000000003-53.3L 229.50000000000003-53.3L 229.50000000000003-38.2L 238.50000000000003-38.2Q 241.40000000000003-38.2  242.3-39.7Q 243.20000000000002-41.2  243.20000000000002-43.1L 243.20000000000002-43.1L 243.20000000000002-48.4Q 243.20000000000002-50.3  242.3-51.8Q 241.40000000000003-53.3  238.50000000000003-53.3L 238.50000000000003-53.3ZM 336.20000000000005-53L 336.20000000000005-18.9Q 336.20000000000005-14.3  334.85-10.55Q 333.5-6.8  330.05-4.15Q 326.6-1.5  320.55 0Q 314.5 1.5  305.2 1.5L 305.2 1.5Q 295.90000000000003 1.5  289.8 0Q 283.7-1.5  280.25-4.15Q 276.8-6.8  275.45-10.55Q 274.1-14.3  274.1-18.9L 274.1-18.9L 274.1-53Q 274.1-57.6  275.45-61.35Q 276.8-65.1  280.25-67.8Q 283.7-70.5  289.8-72Q 295.90000000000003-73.5  305.2-73.5L 305.2-73.5Q 314.5-73.5  320.55-72Q 326.6-70.5  330.05-67.8Q 333.5-65.1  334.85-61.35Q 336.20000000000005-57.6  336.20000000000005-53L 336.20000000000005-53ZM 296.8-49.4L 296.8-22.5Q 296.8-20.5  298.3-19.15Q 299.8-17.8  305.2-17.8L 305.2-17.8Q 310.6-17.8  312.1-19.15Q 313.6-20.5  313.6-22.5L 313.6-22.5L 313.6-49.4Q 313.6-51.3  312.1-52.65Q 310.6-54  305.2-54L 305.2-54Q 299.8-54  298.3-52.65Q 296.8-51.3  296.8-49.4L 296.8-49.4ZM 382.3 0L 382.3 0L 350.7 0Q 348.8 0  347.95-0.85Q 347.1-1.7  347.1-3.6L 347.1-3.6L 347.1-15.3Q 347.1-17.2  347.95-18.05Q 348.8-18.9  350.7-18.9L 350.7-18.9L 377.6-18.9Q 378.9-18.9  379.55-19.75Q 380.2-20.6  380.2-21.8L 380.2-21.8Q 380.2-23.5  379.55-24.3Q 378.9-25.1  377.6-25.2L 377.6-25.2L 362.6-27.3Q 355.6-28.3  351.35-31.9Q 347.1-35.5  347.1-43.9L 347.1-43.9L 347.1-54.4Q 347.1-62.9  352.6-67.45Q 358.1-72  367.8-72L 367.8-72L 395.8-72Q 397.7-72  398.55-71.15Q 399.4-70.3  399.4-68.4L 399.4-68.4L 399.4-56.5Q 399.4-54.6  398.55-53.75Q 397.7-52.9  395.8-52.9L 395.8-52.9L 372.5-52.9Q 371.2-52.9  370.5-52.05Q 369.8-51.2  369.8-49.9L 369.8-49.9Q 369.8-48.6  370.5-47.7Q 371.2-46.8  372.5-46.7L 372.5-46.7L 387.4-44.7Q 394.4-43.7  398.7-40.1Q 403-36.5  403-28.1L 403-28.1L 403-17.6Q 403-9.1  397.45-4.55Q 391.9 0  382.3 0ZM 458.5 0L 415.9 0Q 414 0  413.15-0.85Q 412.3-1.7  412.3-3.6L 412.3-3.6L 412.3-15.5Q 412.3-17.4  413.15-18.25Q 414-19.1  415.9-19.1L 415.9-19.1L 425.8-19.1L 425.8-52.7L 415.9-52.7Q 414-52.7  413.15-53.55Q 412.3-54.4  412.3-56.3L 412.3-56.3L 412.3-68.4Q 412.3-70.3  413.15-71.15Q 414-72  415.9-72L 415.9-72L 458.5-72Q 460.4-72  461.25-71.15Q 462.1-70.3  462.1-68.4L 462.1-68.4L 462.1-56.3Q 462.1-54.4  461.25-53.55Q 460.4-52.7  458.5-52.7L 458.5-52.7L 448.8-52.7L 448.8-19.1L 458.5-19.1Q 460.4-19.1  461.25-18.25Q 462.1-17.4  462.1-15.5L 462.1-15.5L 462.1-3.6Q 462.1-1.7  461.25-0.85Q 460.4 0  458.5 0L 458.5 0ZM 508.4 0L 508.4 0L 492.2 0Q 490.3 0  489.45-0.85Q 488.6-1.7  488.6-3.6L 488.6-3.6L 488.6-52.7L 473.9-52.7Q 472-52.7  471.15-53.55Q 470.3-54.4  470.3-56.3L 470.3-56.3L 470.3-68.4Q 470.3-70.3  471.15-71.15Q 472-72  473.9-72L 473.9-72L 526.7-72Q 528.6-72  529.45-71.15Q 530.3-70.3  530.3-68.4L 530.3-68.4L 530.3-56.3Q 530.3-54.4  529.45-53.55Q 528.6-52.7  526.7-52.7L 526.7-52.7L 512-52.7L 512-3.6Q 512-1.7  511.15-0.85Q 510.3 0  508.4 0ZM 584.6 0L 542 0Q 540.1 0  539.25-0.85Q 538.4-1.7  538.4-3.6L 538.4-3.6L 538.4-15.5Q 538.4-17.4  539.25-18.25Q 540.1-19.1  542-19.1L 542-19.1L 551.9-19.1L 551.9-52.7L 542-52.7Q 540.1-52.7  539.25-53.55Q 538.4-54.4  538.4-56.3L 538.4-56.3L 538.4-68.4Q 538.4-70.3  539.25-71.15Q 540.1-72  542-72L 542-72L 584.6-72Q 586.5-72  587.35-71.15Q 588.2-70.3  588.2-68.4L 588.2-68.4L 588.2-56.3Q 588.2-54.4  587.35-53.55Q 586.5-52.7  584.6-52.7L 584.6-52.7L 574.9-52.7L 574.9-19.1L 584.6-19.1Q 586.5-19.1  587.35-18.25Q 588.2-17.4  588.2-15.5L 588.2-15.5L 588.2-3.6Q 588.2-1.7  587.35-0.85Q 586.5 0  584.6 0L 584.6 0ZM 661.5-53L 661.5-18.9Q 661.5-14.3  660.15-10.55Q 658.8000000000001-6.8  655.35-4.15Q 651.9-1.5  645.85 0Q 639.8000000000001 1.5  630.5 1.5L 630.5 1.5Q 621.2 1.5  615.1 0Q 609-1.5  605.5500000000001-4.15Q 602.1-6.8  600.75-10.55Q 599.4-14.3  599.4-18.9L 599.4-18.9L 599.4-53Q 599.4-57.6  600.75-61.35Q 602.1-65.1  605.5500000000001-67.8Q 609-70.5  615.1-72Q 621.2-73.5  630.5-73.5L 630.5-73.5Q 639.8000000000001-73.5  645.85-72Q 651.9-70.5  655.35-67.8Q 658.8000000000001-65.1  660.15-61.35Q 661.5-57.6  661.5-53L 661.5-53ZM 622.1-49.4L 622.1-22.5Q 622.1-20.5  623.6-19.15Q 625.1-17.8  630.5-17.8L 630.5-17.8Q 635.9-17.8  637.4-19.15Q 638.9-20.5  638.9-22.5L 638.9-22.5L 638.9-49.4Q 638.9-51.3  637.4-52.65Q 635.9-54  630.5-54L 630.5-54Q 625.1-54  623.6-52.65Q 622.1-51.3  622.1-49.4L 622.1-49.4ZM 692.8000000000001 0L 692.8000000000001 0L 677.8000000000001 0Q 675.9000000000001 0  675.0500000000001-0.85Q 674.2-1.7  674.2-3.6L 674.2-3.6L 674.2-68.4Q 674.2-70.3  675.0500000000001-71.15Q 675.9000000000001-72  677.8000000000001-72L 677.8000000000001-72L 688.2-72Q 690.1-72  691.45-71.4Q 692.8000000000001-70.8  694.1-69.3L 694.1-69.3L 713.5000000000001-47.1L 713.5000000000001-68.4Q 713.5000000000001-70.3  714.35-71.15Q 715.2-72  717.1-72L 717.1-72L 732.1-72Q 734.0000000000001-72  734.85-71.15Q 735.7-70.3  735.7-68.4L 735.7-68.4L 735.7-3.6Q 735.7-1.7  734.85-0.85Q 734.0000000000001 0  732.1 0L 732.1 0L 717.1 0Q 715.2 0  714.35-0.85Q 713.5000000000001-1.7  713.5000000000001-3.6L 713.5000000000001-3.6L 713.5000000000001-15.9L 696.4000000000001-36.6L 696.4000000000001-3.6Q 696.4000000000001-1.7  695.5500000000001-0.85Q 694.7 0  692.8000000000001 0Z"></path><g id="_OYtGeN0DgAxRO6MtSI7iI" transform="matrix(0.9194594025611877, 0, 0, 0.9194594025611877, 18.537269592285156, 41.360107421875)" data-uid="o_eij736m56_8" fill="#6b069c" stroke="rgba(0,0,0,0)"><path id="_tzlMA5Cd1UB6EBgshPI_3" fill="#6b069c" d="M33,40c-3.3,0-6-2.7-6-6s2.7-6,6-6s6,2.7,6,6S36.3,40,33,40z M33,30c-2.2,0-4,1.8-4,4s1.8,4,4,4s4-1.8,4-4    S35.2,30,33,30z" transform="matrix(4.24893856048584, 0, 0, 4.24893856048584, -61.43339157104492, 3.619601249694824)" data-uid="o_eij736m56_9" stroke="rgba(0,0,0,0)"></path><path id="_WbUHncDrM4sC07qOBM9vx" fill="#6b069c" d="M44,54H22v-4.2c0-4.9,3.9-8.8,8.8-8.8h4.4c4.9,0,8.8,3.9,8.8,8.8V54z M24,52h18v-2.2    c0-3.8-3.1-6.8-6.8-6.8h-4.4C27,43,24,46.1,24,49.8V52z" transform="matrix(4.24893856048584, 0, 0, 4.24893856048584, -61.43311309814453, 1.4940800666809082)" data-uid="o_eij736m56_10" stroke="rgba(0,0,0,0)"></path><path id="_o4-hC9cav-jihQzRIy2gI" fill="#6b069c" d="M47,36c-3.3,0-6-2.7-6-6s2.7-6,6-6s6,2.7,6,6S50.3,36,47,36z M47,26c-2.2,0-4,1.8-4,4s1.8,4,4,4s4-1.8,4-4    S49.2,26,47,26z" transform="matrix(4.24893856048584, 0, 0, 4.24893856048584, -61.434513092041016, 3.6198813915252686)" data-uid="o_eij736m56_11" stroke="rgba(0,0,0,0)"></path><path id="_zrf7ezH4r3IEM6oF8QcxY" fill="#6b069c" d="M58,50H46v-2h10v-2.2c0-3.8-3.1-6.8-6.8-6.8h-4.4c-1.2,0-2.3,0.3-3.3,0.9l-1-1.7c1.3-0.7,2.8-1.1,4.3-1.1    h4.4c4.9,0,8.8,3.9,8.8,8.8V50z" transform="matrix(4.24893856048584, 0, 0, 4.24893856048584, -61.434871673583984, 3.194002866744995)" data-uid="o_eij736m56_12" stroke="rgba(0,0,0,0)"></path><path id="_4ClW_3Xsrre-pPpmU5TsV" fill="#6b069c" transform="matrix(0.37472888827323914, 0, 0, 0.37472888827323914, 56.94282531738281, 241.38290405273438)" data-type="polygon" d="M123.5 123.5L61.04 92.5L0 123.5L0 0L123.5 0L123.5 123.5Z" data-uid="o_eij736m56_13" stroke="rgba(0,0,0,0)"></path></g></svg><path class="_CanvasObfuscator-module__canvasObfuscator__3YTU6" d="M-378.6954954954955 -33.67207207207207h1269.390990990991v579.3441441441441h-1269.390990990991z M0 0v512h512v-512z" style=""></path><g><path class="_BoundingBoxPath-module__container__3nKEI _sw1" d="M0 0L 0 0L0 0L0 0 Z" fill="transparent" stroke="red"></path><path class="_BoundingBoxPath-module__container__3nKEI _sw1" d="M-70.25205993652344 116.47757720947266L -70.25205993652344 116.47757720947266L-70.25205993652344 116.47757720947266L-70.25205993652344 116.47757720947266 Z" fill="transparent" stroke="red"></path><path class="_BoundingBoxPath-module__container__3nKEI _sw1" d="M150.7298855818808 270.1856458187103L 451.60975849442184 270.1856458187103L451.60975849442184 317.6029169559479L150.7298855818808 317.6029169559479 Z" fill="transparent" stroke="red"></path><path class="_BoundingBoxPath-module__container__3nKEI _sw1" d="M149.56058890372515 327.08118772506714L 451.6097629405558 327.08118772506714L451.6097629405558 358.1647000312805L149.56058890372515 358.1647000312805 Z" fill="transparent" stroke="red"></path><path class="_BoundingBoxPath-module__container__3nKEI _sw1" d="M47.99999935314838 138.44987765171328L 188.64053678679159 138.44987765171328L188.64053678679159 305.8535661378518L47.99999935314838 305.8535661378518 Z" fill="transparent" stroke="red"></path></g></svg>