<svg width="1376px" height="628px" style="position: relative; top: 0px; left: 0px; width: 1376px; height: 628px;" class="_ViewportContainer-module__viewport__3SU_V" viewBox="-463.5359832845803 -72.39287609209043 1439.0719665691606 656.7857521841809"><style></style><defs><pattern id="o_eij736m56_3" class="pattern-dotted" x="0" y="0" width="33.46678992021304" height="33.46678992021304" patternUnits="userSpaceOnUse"><rect x="0" y="0" width="33.46678992021304" height="33.46678992021304"></rect><circle cx="0" cy="0" r="1.568755777509986"></circle><circle cx="33.46678992021304" cy="0" r="1.568755777509986"></circle><circle cx="33.46678992021304" cy="33.46678992021304" r="1.568755777509986"></circle><circle cx="0" cy="33.46678992021304" r="1.568755777509986"></circle></pattern></defs><rect class="_ViewportContainer-module__background__1DPKg" fill="url(#o_eij736m56_3)" stroke-width="1.0458371850066575" x="0" y="0" width="512" height="512"></rect><svg xmlns="http://www.w3.org/2000/svg" width="512" height="512" style="overflow: visible;" viewBox="0 0 512 512" data-svgdocument="" id="_hIhg2RfQs3aojVFUZK4UJ" class="fl-svgdocument" x="0" y="0" xmlns:xlink="http://www.w3.org/1999/xlink"><rect data-uid="o_eij736m56_26" data-fl-background="" x="0" y="0" width="512" height="512" fill="#ffffff"></rect><defs id="_-EmHSPFrAsk6S5VyBCMl8" transform="matrix(1.4592227935791016, 0, 0, 1.4592227935791016, -70.25205993652344, 116.47757720947266)" data-uid="o_eij736m56_5"></defs><path text="DD" text-anchor="start" font-size="100" letter-spacing="0" side="left" offset="0" dx="0" dy="0" space="preserve" href="" font-family="Bungee" font-scale="contain" transform="matrix(1.022796392440796, 0, 0, 1.022796392440796, 311.1374761264383, 464.54473681349737)" x="0" y="0" fill="#242424" data-fl-textpath="" id="_jHqtS0EJ6D3jCZshQxuCm" data-uid="o_eij736m56_6" d="M 44.2 0L 44.2 0L 10.5 0Q 8.6 0  7.75-0.85Q 6.9-1.7  6.9-3.6L 6.9-3.6L 6.9-68.4Q 6.9-70.3  7.75-71.15Q 8.6-72  10.5-72L 10.5-72L 44.2-72Q 56.7-72  62.75-67Q 68.8-62  68.8-51.6L 68.8-51.6L 68.8-20.4Q 68.8-10  62.75-5Q 56.7 0  44.2 0ZM 41.5-52.9L 29.6-52.9L 29.6-18.9L 41.5-18.9Q 43.9-18.9  45.05-20.1Q 46.2-21.3  46.2-23.8L 46.2-23.8L 46.2-48.1Q 46.2-50.6  45.05-51.75Q 43.9-52.9  41.5-52.9L 41.5-52.9ZM 118.8 0L 118.8 0L 85.1 0Q 83.19999999999999 0  82.35-0.85Q 81.5-1.7  81.5-3.6L 81.5-3.6L 81.5-68.4Q 81.5-70.3  82.35-71.15Q 83.19999999999999-72  85.1-72L 85.1-72L 118.8-72Q 131.3-72  137.35-67Q 143.39999999999998-62  143.39999999999998-51.6L 143.39999999999998-51.6L 143.39999999999998-20.4Q 143.39999999999998-10  137.35-5Q 131.3 0  118.8 0ZM 116.1-52.9L 104.19999999999999-52.9L 104.19999999999999-18.9L 116.1-18.9Q 118.5-18.9  119.64999999999999-20.1Q 120.8-21.3  120.8-23.8L 120.8-23.8L 120.8-48.1Q 120.8-50.6  119.64999999999999-51.75Q 118.5-52.9  116.1-52.9L 116.1-52.9Z"></path><g id="_OYtGeN0DgAxRO6MtSI7iI" transform="matrix(2.6386616230010986, 0, 0, 2.6386616230010986, -30.356926665418996, -262.8351911364838)" data-uid="o_eij736m56_8" fill="#6b069c" stroke="rgba(0,0,0,0)"><path id="_tzlMA5Cd1UB6EBgshPI_3" fill="#6b069c" d="M33,40c-3.3,0-6-2.7-6-6s2.7-6,6-6s6,2.7,6,6S36.3,40,33,40z M33,30c-2.2,0-4,1.8-4,4s1.8,4,4,4s4-1.8,4-4    S35.2,30,33,30z" transform="matrix(4.24893856048584, 0, 0, 4.24893856048584, -61.43339157104492, 3.619601249694824)" data-uid="o_eij736m56_9" stroke="rgba(0,0,0,0)"></path><path id="_WbUHncDrM4sC07qOBM9vx" fill="#6b069c" d="M44,54H22v-4.2c0-4.9,3.9-8.8,8.8-8.8h4.4c4.9,0,8.8,3.9,8.8,8.8V54z M24,52h18v-2.2    c0-3.8-3.1-6.8-6.8-6.8h-4.4C27,43,24,46.1,24,49.8V52z" transform="matrix(4.24893856048584, 0, 0, 4.24893856048584, -61.43311309814453, 1.4940800666809082)" data-uid="o_eij736m56_10" stroke="rgba(0,0,0,0)"></path><path id="_o4-hC9cav-jihQzRIy2gI" fill="#6b069c" d="M47,36c-3.3,0-6-2.7-6-6s2.7-6,6-6s6,2.7,6,6S50.3,36,47,36z M47,26c-2.2,0-4,1.8-4,4s1.8,4,4,4s4-1.8,4-4    S49.2,26,47,26z" transform="matrix(4.24893856048584, 0, 0, 4.24893856048584, -61.434513092041016, 3.6198813915252686)" data-uid="o_eij736m56_11" stroke="rgba(0,0,0,0)"></path><path id="_zrf7ezH4r3IEM6oF8QcxY" fill="#6b069c" d="M58,50H46v-2h10v-2.2c0-3.8-3.1-6.8-6.8-6.8h-4.4c-1.2,0-2.3,0.3-3.3,0.9l-1-1.7c1.3-0.7,2.8-1.1,4.3-1.1    h4.4c4.9,0,8.8,3.9,8.8,8.8V50z" transform="matrix(4.24893856048584, 0, 0, 4.24893856048584, -61.434871673583984, 3.194002866744995)" data-uid="o_eij736m56_12" stroke="rgba(0,0,0,0)"></path><path id="_4ClW_3Xsrre-pPpmU5TsV" fill="#6b069c" transform="matrix(0.37472888827323914, 0, 0, 0.37472888827323914, 56.94282531738281, 241.38290405273438)" data-type="polygon" d="M123.5 123.5L61.04 92.5L0 123.5L0 0L123.5 0L123.5 123.5Z" data-uid="o_eij736m56_13" stroke="rgba(0,0,0,0)"></path></g></svg><path class="_CanvasObfuscator-module__canvasObfuscator__3YTU6" d="M-463.5359832845803 -72.39287609209043h1439.0719665691606v656.7857521841809h-1439.0719665691606z M0 0v512h512v-512z" style=""></path><g><path class="_BoundingBoxPath-module__container__3nKEI _sw1" d="M0 0L 0 0L0 0L0 0 Z" fill="transparent" stroke="red"></path><path class="_BoundingBoxPath-module__container__3nKEI _sw1" d="M-70.25205993652344 116.47757720947266L -70.25205993652344 116.47757720947266L-70.25205993652344 116.47757720947266L-70.25205993652344 116.47757720947266 Z" fill="transparent" stroke="red"></path><path class="_BoundingBoxPath-module__container__3nKEI _sw1" d="M318.1931786779314 390.90339851379395L 457.80488624610007 390.90339851379395L457.80488624610007 464.54473876953125L318.1931786779314 464.54473876953125 Z" fill="transparent" stroke="red"></path><path class="_BoundingBoxPath-module__container__3nKEI _sw1" d="M54.195120719041824 15.792703862552969L 457.80488068308523 15.792703862552969L457.80488068308523 496.20726825416466L54.195120719041824 496.20726825416466 Z" fill="transparent" stroke="red"></path></g></svg>